# xmcd
#
# Track frame offsets: 
#        150
#        15237
#        30750
#        47185
#        58055
#        74190
#        91890
#        106140
#        121145
#        134480
#        145745
#        157882
#        171230
#        183695
#
# Disc length: 2679 seconds
#
# Revision: 2
# Processed by: cddbd v1.5.1PL0 Copyright (c) Steve Scherf et al.
# Submitted via: ExactAudioCopy v0.95a5
#
DISCID=ba0a750e
DTITLE=Marlee MacLeod - Vertigo
DYEAR=1997
DGENRE=Rock
TTITLE0=Mata Hari Dress
TTITLE1=Me and Shelley Winters
TTITLE2=Just Like Geronimo
TTITLE3=Can I Stay?
TTITLE4=Econoline
TTITLE5=When We Arrive
TTITLE6=Not With You
TTITLE7=Vertigo
TTITLE8=Days of Our Lives
TTITLE9=Younger
TTITLE10=Beautiful
TTITLE11=Postcard
TTITLE12=Like I Know What I'm Doing
TTITLE13=No Vacancy
EXTD=
EXTT0=
EXTT1=
EXTT2=
EXTT3=
EXTT4=
EXTT5=
EXTT6=
EXTT7=
EXTT8=
EXTT9=
EXTT10=
EXTT11=
EXTT12=
EXTT13=
PLAYORDER=
